<svg xmlns="http://www.w3.org/2000/svg" width="520" height="200">
  <!-- 텍스트 대비 -->
  <text x="4" y="16" font-family="Noto Sans KR, sans-serif" font-size="14" font-weight="700" fill="#424242">텍스트 대비 — 최소 4.5:1 (SC 1.4.3)</text>

  <rect x="4" y="28" width="248" height="56" rx="6" fill="#fff" stroke="#E0E0E0"/>
  <text x="20" y="58" font-family="Noto Sans KR, sans-serif" font-size="18" fill="#757575">안녕하세요</text>
  <text x="148" y="54" font-family="Noto Sans KR, sans-serif" font-size="13" font-weight="700" fill="#22C55E">4.6:1 PASS</text>
  <text x="20" y="76" font-family="Noto Sans KR, sans-serif" font-size="11" fill="#9E9E9E">#757575 on #FFFFFF</text>

  <rect x="268" y="28" width="248" height="56" rx="6" fill="#fff" stroke="#E0E0E0"/>
  <text x="284" y="58" font-family="Noto Sans KR, sans-serif" font-size="18" fill="#BDBDBD">안녕하세요</text>
  <text x="412" y="54" font-family="Noto Sans KR, sans-serif" font-size="13" font-weight="700" fill="#EF4444">1.4:1 FAIL</text>
  <text x="284" y="76" font-family="Noto Sans KR, sans-serif" font-size="11" fill="#9E9E9E">#BDBDBD on #FFFFFF</text>

  <!-- 비텍스트 대비: 아이콘 버튼 -->
  <text x="4" y="116" font-family="Noto Sans KR, sans-serif" font-size="14" font-weight="700" fill="#424242">비텍스트 대비 — 최소 3:1 (SC 1.4.11)</text>

  <!-- PASS: #949494 = 3:1 -->
  <rect x="4" y="128" width="248" height="56" rx="6" fill="#fff" stroke="#E0E0E0"/>
  <rect x="20" y="140" width="32" height="32" rx="4" fill="none" stroke="#949494" stroke-width="1.5"/>
  <line x1="30" y1="150" x2="42" y2="162" stroke="#949494" stroke-width="2" stroke-linecap="round"/>
  <line x1="42" y1="150" x2="30" y2="162" stroke="#949494" stroke-width="2" stroke-linecap="round"/>
  <rect x="64" y="140" width="32" height="32" rx="4" fill="none" stroke="#949494" stroke-width="1.5"/>
  <circle cx="77" cy="153" r="7" fill="none" stroke="#949494" stroke-width="2"/>
  <line x1="82" y1="158" x2="88" y2="164" stroke="#949494" stroke-width="2" stroke-linecap="round"/>
  <rect x="108" y="140" width="32" height="32" rx="4" fill="none" stroke="#949494" stroke-width="1.5"/>
  <line x1="116" y1="150" x2="132" y2="150" stroke="#949494" stroke-width="2" stroke-linecap="round"/>
  <line x1="116" y1="156" x2="132" y2="156" stroke="#949494" stroke-width="2" stroke-linecap="round"/>
  <line x1="116" y1="162" x2="132" y2="162" stroke="#949494" stroke-width="2" stroke-linecap="round"/>
  <text x="152" y="160" font-family="Noto Sans KR, sans-serif" font-size="13" font-weight="700" fill="#22C55E">3:1 PASS</text>

  <!-- FAIL: #E0E0E0 = 1.3:1 -->
  <rect x="268" y="128" width="248" height="56" rx="6" fill="#fff" stroke="#E0E0E0"/>
  <rect x="284" y="140" width="32" height="32" rx="4" fill="none" stroke="#E0E0E0" stroke-width="1"/>
  <line x1="294" y1="150" x2="306" y2="162" stroke="#E0E0E0" stroke-width="1.5" stroke-linecap="round"/>
  <line x1="306" y1="150" x2="294" y2="162" stroke="#E0E0E0" stroke-width="1.5" stroke-linecap="round"/>
  <rect x="328" y="140" width="32" height="32" rx="4" fill="none" stroke="#E0E0E0" stroke-width="1"/>
  <circle cx="341" cy="153" r="7" fill="none" stroke="#E0E0E0" stroke-width="1.5"/>
  <line x1="346" y1="158" x2="352" y2="164" stroke="#E0E0E0" stroke-width="1.5" stroke-linecap="round"/>
  <rect x="372" y="140" width="32" height="32" rx="4" fill="none" stroke="#E0E0E0" stroke-width="1"/>
  <line x1="380" y1="150" x2="396" y2="150" stroke="#E0E0E0" stroke-width="1.5" stroke-linecap="round"/>
  <line x1="380" y1="156" x2="396" y2="156" stroke="#E0E0E0" stroke-width="1.5" stroke-linecap="round"/>
  <line x1="380" y1="162" x2="396" y2="162" stroke="#E0E0E0" stroke-width="1.5" stroke-linecap="round"/>
  <text x="416" y="160" font-family="Noto Sans KR, sans-serif" font-size="13" font-weight="700" fill="#EF4444">1.3:1 FAIL</text>
</svg>
