<svg xmlns="http://www.w3.org/2000/svg" width="520" height="170">
  <text x="4" y="16" font-family="Noto Sans KR, sans-serif" font-size="14" font-weight="700" fill="#424242">텍스트 200% 확대 시 콘텐츠 손실</text>

  <!-- 100% 기본 -->
  <text x="4" y="42" font-family="Noto Sans KR, sans-serif" font-size="12" fill="#757575">100% (기본)</text>

  <rect x="4" y="50" width="150" height="80" rx="6" fill="#fff" stroke="#E0E0E0"/>
  <text x="20" y="70" font-family="Noto Sans KR, sans-serif" font-size="11" fill="#424242">이름</text>
  <rect x="56" y="58" width="84" height="18" rx="3" fill="none" stroke="#E0E0E0"/>
  <text x="62" y="70" font-family="Noto Sans KR, sans-serif" font-size="10" fill="#9E9E9E">홍길동</text>
  <text x="20" y="96" font-family="Noto Sans KR, sans-serif" font-size="11" fill="#424242">이메일</text>
  <rect x="56" y="84" width="84" height="18" rx="3" fill="none" stroke="#E0E0E0"/>
  <text x="62" y="96" font-family="Noto Sans KR, sans-serif" font-size="10" fill="#9E9E9E">test@email.com</text>

  <!-- 200% BAD -->
  <path d="M168,38 L176,46 M176,38 L168,46" stroke="#EF4444" stroke-width="2" stroke-linecap="round"/>
  <text x="182" y="46" font-family="Noto Sans KR, sans-serif" font-size="12" font-weight="600" fill="#EF4444">200% — 고정 높이</text>

  <rect x="162" y="50" width="150" height="80" rx="6" fill="#fff" stroke="#E0E0E0"/>
  <text x="178" y="76" font-family="Noto Sans KR, sans-serif" font-size="18" fill="#424242">이름</text>
  <path d="M181,82 L308,82 L308,106 L181,106 Q178,106 178,103 L178,85 Q178,82 181,82 Z" fill="none" stroke="#E0E0E0"/>
  <text x="184" y="98" font-family="Noto Sans KR, sans-serif" font-size="16" fill="#9E9E9E">홍길동</text>
  <text x="178" y="124" font-family="Noto Sans KR, sans-serif" font-size="18" fill="#424242">이메</text>
  <!-- 잘림 표시 -->
  <rect x="308" y="50" width="4" height="80" fill="#EF4444" rx="1" opacity="0.4"/>

  <!-- 200% GOOD -->
  <path d="M330,42 L333,46 L340,38" stroke="#22C55E" stroke-width="2" stroke-linecap="round" stroke-linejoin="round" fill="none"/>
  <text x="346" y="46" font-family="Noto Sans KR, sans-serif" font-size="12" font-weight="600" fill="#22C55E">200% — 리플로우</text>

  <rect x="324" y="50" width="192" height="116" rx="6" fill="#fff" stroke="#E0E0E0"/>
  <text x="340" y="76" font-family="Noto Sans KR, sans-serif" font-size="18" fill="#424242">이름</text>
  <rect x="340" y="82" width="160" height="24" rx="3" fill="none" stroke="#E0E0E0"/>
  <text x="346" y="98" font-family="Noto Sans KR, sans-serif" font-size="16" fill="#9E9E9E">홍길동</text>
  <text x="340" y="128" font-family="Noto Sans KR, sans-serif" font-size="18" fill="#424242">이메일</text>
  <rect x="340" y="134" width="160" height="24" rx="3" fill="none" stroke="#E0E0E0"/>
  <text x="346" y="150" font-family="Noto Sans KR, sans-serif" font-size="16" fill="#9E9E9E">test@email.com</text>
</svg>
