<svg xmlns="http://www.w3.org/2000/svg" width="520" height="140">
  <text x="4" y="14" font-family="Noto Sans KR, sans-serif" font-size="14" font-weight="700" fill="#424242">터치 타겟 크기 비교</text>

  <rect x="4" y="24" width="116" height="108" rx="6" fill="#fff" stroke="#E0E0E0"/>
  <rect x="54" y="52" width="16" height="16" rx="3" fill="#FAFAFA" stroke="#EF4444" stroke-width="1.5"/>
  <text x="62" y="100" font-family="Noto Sans KR, sans-serif" font-size="13" fill="#424242" text-anchor="middle">16×16</text>
  <text x="62" y="118" font-family="Noto Sans KR, sans-serif" font-size="12" font-weight="700" fill="#EF4444" text-anchor="middle">부적합</text>

  <rect x="134" y="24" width="116" height="108" rx="6" fill="#fff" stroke="#E0E0E0"/>
  <rect x="180" y="48" width="24" height="24" rx="4" fill="#FAFAFA" stroke="#22C55E" stroke-width="1.5"/>
  <text x="192" y="100" font-family="Noto Sans KR, sans-serif" font-size="13" fill="#424242" text-anchor="middle">24×24</text>
  <text x="192" y="118" font-family="Noto Sans KR, sans-serif" font-size="12" font-weight="700" fill="#22C55E" text-anchor="middle">AA 최소</text>

  <rect x="264" y="24" width="116" height="108" rx="6" fill="#fff" stroke="#E0E0E0"/>
  <rect x="300" y="38" width="44" height="44" rx="6" fill="#FAFAFA" stroke="#2563EB" stroke-width="1.5"/>
  <text x="322" y="100" font-family="Noto Sans KR, sans-serif" font-size="13" fill="#424242" text-anchor="middle">44×44</text>
  <text x="322" y="118" font-family="Noto Sans KR, sans-serif" font-size="12" font-weight="700" fill="#2563EB" text-anchor="middle">AAA 권장</text>

  <rect x="394" y="24" width="116" height="108" rx="6" fill="#fff" stroke="#E0E0E0"/>
  <rect x="430" y="38" width="44" height="44" rx="6" fill="none" stroke="#757575" stroke-width="1" stroke-dasharray="3 3"/>
  <rect x="442" y="50" width="20" height="20" rx="4" fill="#424242"/>
  <text x="452" y="100" font-family="Noto Sans KR, sans-serif" font-size="13" fill="#424242" text-anchor="middle">padding</text>
  <text x="452" y="118" font-family="Noto Sans KR, sans-serif" font-size="12" font-weight="700" fill="#2563EB" text-anchor="middle">AAA 통과</text>
</svg>
